<svg width="48" height="46" viewBox="0 0 48 46" fill="none" xmlns="http://www.w3.org/2000/svg">
<g clip-path="url(#clip0_16232_387)">
<path d="M19.8766 31.1284C21.6604 32.8398 24.5562 32.8398 26.34 31.1284L32.4558 25.2541C34.2396 23.5427 34.2396 20.7674 32.4558 19.056L28.1006 14.8931C27.1971 14.0374 26.0388 13.6211 24.8573 13.6211C23.6759 13.6211 22.5176 14.0374 21.6141 14.8931L15.5214 20.7443C13.7376 22.4557 13.7376 25.2309 15.5214 26.9424L19.8766 31.1284Z" fill="#001529"/>
<path d="M23.2356 10.8699C25.7375 10.3611 28.4711 11.0087 30.3476 12.7895L34.5406 16.7905L38.2704 13.2058C39.0812 12.4195 39.0812 11.1706 38.2704 10.3843L29.8611 2.336C26.641 -0.763043 21.4055 -0.763043 18.1622 2.336L17.6989 2.75229C16.8881 3.53862 16.8881 4.78749 17.6989 5.57381L23.2356 10.8699Z" fill="#001529"/>
<path d="M20.2009 12.1874L15.4982 7.67763C14.6874 6.89131 13.3669 6.89131 12.5561 7.67763L8.20088 11.8405C7.39007 12.6269 7.39007 13.8757 8.20088 14.662L12.8804 19.1487C13.0194 18.9637 13.1584 18.7787 13.3206 18.6168L19.4364 12.7425C19.6681 12.5575 19.9461 12.3725 20.2009 12.1874Z" fill="#001529"/>
<path d="M11.6295 26.5737C11.0272 25.0936 10.9577 23.4747 11.3747 21.9483L6.0002 16.7909C5.18939 16.0046 3.86893 16.0046 3.05812 16.7909L2.43264 17.3922C-0.787441 20.4913 -0.787441 25.5099 2.43264 28.6089L4.49441 30.5747C5.30522 31.3611 6.62569 31.3611 7.4365 30.5747L11.6295 26.5737Z" fill="#001529"/>
<path d="M45.5672 17.3919L43.3896 15.3104C42.5788 14.5241 41.2583 14.5241 40.4475 15.3104L36.3008 19.2883C36.6946 20.1903 36.9031 21.1616 36.9031 22.1561C36.9031 22.7112 36.8104 23.2662 36.6946 23.7981L42.1618 29.0249C42.9726 29.8112 44.2931 29.8112 45.1039 29.0249L45.544 28.6086C48.8104 25.5095 48.8104 20.4909 45.5672 17.3919Z" fill="#001529"/>
<path d="M25.1116 35.1071C24.463 35.269 23.7911 35.3847 23.1193 35.3847C21.1502 35.3847 19.1811 34.6677 17.6753 33.2338L13.3896 29.1172L9.65987 32.7019C8.84906 33.4882 8.84906 34.7371 9.65987 35.5234L18.1618 43.6873C21.3819 46.7864 26.6174 46.7864 29.8606 43.6873L30.4861 43.086C31.2969 42.2997 31.2969 41.0508 30.4861 40.2645L25.1116 35.1071Z" fill="#001529"/>
<path d="M39.9849 33.9742C40.7957 33.1879 40.7957 31.939 39.9849 31.1527L35.2822 26.666C35.0969 26.8973 34.9116 27.1517 34.6799 27.383L28.5641 33.2573C28.4019 33.4192 28.1934 33.5348 28.0312 33.6736L32.7108 38.1602C33.5216 38.9466 34.8421 38.9466 35.6529 38.1602L39.9849 33.9742Z" fill="#001529"/>
</g>
<defs>
<clipPath id="clip0_16232_387">
<rect width="48" height="46" fill="white"/>
</clipPath>
</defs>
</svg>
